<?xml version="1.0" encoding="utf-8"?>
<!-- Generator: Adobe Illustrator 18.1.0, SVG Export Plug-In . SVG Version: 6.00 Build 0)  -->
<svg version="1.1" id="Layer_1" xmlns="http://www.w3.org/2000/svg" xmlns:xlink="http://www.w3.org/1999/xlink" x="0px" y="0px"
	 viewBox="8 3 363.8 93" enable-background="new 8 3 363.8 93" xml:space="preserve">
<g>
	<path fill="#FFFFFF" d="M122.4,32.8h-5.3v32h5.5c2.4,0,4.3-1.1,5.5-3.5c1.4-2.6,2.1-6.9,2.1-12.8c0-6-0.8-10.3-2.3-12.7
		C126.7,33.8,124.9,32.8,122.4,32.8z"/>
	<path fill="#FFFFFF" d="M264.5,26C260.4,3.8,199.7-3.6,129,9.4S4.2,50.8,8.2,73s64.7,29.6,135.5,16.7
		C214.4,76.6,268.5,48.1,264.5,26z M35.1,72.6L33.5,82l-1.6-9.4c-1.7-0.6-2.9-1.9-3.5-3.5l-10.5-1.6l10.5-1.6
		c0.6-1.6,1.8-2.8,3.5-3.3l1.5-7.7l1.5,7.7c1.6,0.5,2.9,1.7,3.5,3.3l10.5,1.6l-10.5,1.6C38.1,70.7,36.8,72,35.1,72.6z M96.5,61.5
		c0,5.1-1.7,8.8-5,11.2c-3,2.2-7.5,3.2-13.5,3.2c-5.8,0-10-1.7-12.3-5c-1.9-2.6-2.7-6.6-2.7-11.9h14.2c0,6.9,2.1,6.6,2.1,6.6
		s2.8,0.8,2.8-5.3V22.7h14.3L96.5,61.5L96.5,61.5z M140,67.1c-3.6,4.8-9.4,7.2-17.6,8.2h-11.9c-7.4,0-7.4-8.9-7.4-8.9V22.8h18.3
		c8,0,13.7,2.4,17.3,6.9c3.3,4.1,5.9,10.3,5.9,18.4C144.7,56.6,143.1,62.9,140,67.1z M186.8,72c-3.7,3.1-8.5,4.7-14.3,4.7
		c-7,0-12.6-2.1-16.8-6.1c-4.8-4.7-7.2-11.6-7.2-20.7c0-9.2,2.5-16.2,7.7-21c4.3-4,9.8-6,16.4-6c6.4,0,11.5,1.5,15.1,4.6
		c3.4,2.7,5.3,6.4,5,11.3H179c0,0-0.3-5.6-6.4-5.6c-3.1,0-5.4,1-7.1,3c-2.2,2.6-3.2,7.1-3.2,13.4c0,5.2,0.8,9,2.3,11.7
		c1.6,2.8,4.1,4.2,7.5,4.2c2.3,0,4.1-0.7,5.5-1.9c2.4-2.3,2.5-6.3,2.5-6.3h13.4C192.4,64.9,191.6,68,186.8,72z M221.9,47.9l-1.4,8.5
		l-1.4-8.5c-1.5-0.5-2.6-1.6-3.1-3.1l-9.4-1.5l9.5-1.5c0.5-1.4,1.6-2.5,3.1-2.9l1.4-6.9l1.4,6.9c1.4,0.5,2.6,1.5,3.1,2.9l9.5,1.5
		l-9.4,1.4C224.5,46.2,223.4,47.4,221.9,47.9z M237.3,30.2l-1.4,8.5l-1.4-8.5c-1.5-0.5-2.6-1.6-3.1-3.1l-9.4-1.5l9.5-1.5
		c0.5-1.4,1.6-2.5,3.1-2.9l1.4-6.9l1.4,6.9c1.4,0.5,2.6,1.5,3.1,2.9l9.5,1.5l-9.4,1.5C239.9,28.5,238.8,29.7,237.3,30.2z"/>
</g>
<path fill="#FFFFFF" d="M247.8,67.6h5.1v18.1c0,7.7-3.8,10.3-9.2,10.3c-1.4,0-3.2-0.3-4.3-0.7l0.7-4c0.8,0.3,2,0.5,3.1,0.5
	c2.9,0,4.7-1.3,4.7-6.1L247.8,67.6L247.8,67.6z"/>
<path fill="#FFFFFF" d="M263.6,69.8c0,1.5-1.1,2.7-2.9,2.7c-1.7,0-2.8-1.2-2.8-2.7c0-1.6,1.1-2.7,2.8-2.7
	C262.4,66.9,263.6,68.2,263.6,69.8z M258.2,95.5V75.4h5.1v20.1H258.2z"/>
<path fill="#FFFFFF" d="M268.7,81.3c0-2.4-0.1-4.2-0.2-6h4.4l0.3,3h0.1c0.9-1.6,3.1-3.5,6.5-3.5c3.5,0,7.1,2.3,7.1,8.7v11.9h-5.1
	V84.1c0-2.9-1-5.1-3.9-5.1c-2.1,0-3.4,1.4-4,3c-0.2,0.4-0.3,1-0.3,1.6v11.9h-5.1V81.3L268.7,81.3z"/>
<path fill="#FFFFFF" d="M292.6,68c2.3-0.4,5.1-0.6,8.1-0.6c5.2,0,8.7,1,11.3,3.2c2.7,2.2,4.4,5.6,4.4,10.3c0,5-1.7,8.7-4.3,11.1
	c-2.7,2.5-7.1,3.8-12.6,3.8c-2.9,0-5.2-0.2-6.9-0.4V68z M297.7,91.7c0.7,0.1,1.8,0.1,2.8,0.1c6.6,0,10.5-3.7,10.5-10.7
	c0-6.1-3.5-9.7-9.9-9.7c-1.6,0-2.7,0.1-3.5,0.3V91.7z"/>
<path fill="#FFFFFF" d="M336.3,90.7c0,1.8,0.1,3.6,0.4,4.8h-4.6l-0.4-2.3h-0.1c-1.2,1.6-3.3,2.7-5.9,2.7c-4,0-6.3-2.9-6.3-6
	c0-5.1,4.5-7.6,11.9-7.6v-0.4c0-1.3-0.6-3.5-4-3.5c-2,0-4,0.7-5.5,1.5l-1-3.3c1.5-0.9,4.1-1.8,7.2-1.8c6.5,0,8.3,4.1,8.3,8.6V90.7
	L336.3,90.7z M331.3,85.7c-3.6,0-7.1,0.7-7.1,3.8c0,2,1.3,2.9,2.9,2.9c2.1,0,3.5-1.3,4-2.7c0.1-0.4,0.1-0.8,0.1-1.1V85.7L331.3,85.7
	z"/>
<path fill="#FFFFFF" d="M347.2,70.2v5.2h4.8v3.8h-4.8V88c0,2.4,0.7,3.8,2.6,3.8c0.9,0,1.4,0,2-0.2l0.1,3.9c-0.8,0.3-2.1,0.6-3.7,0.6
	c-1.9,0-3.4-0.7-4.4-1.7c-1.1-1.1-1.6-3-1.6-5.6v-9.5h-2.8v-3.8h2.8v-3.8L347.2,70.2z"/>
<path fill="#FFFFFF" d="M371.5,90.7c0,1.8,0.1,3.6,0.4,4.8h-4.6l-0.4-2.3h-0.1c-1.2,1.6-3.3,2.7-5.9,2.7c-4,0-6.3-2.9-6.3-6
	c0-5.1,4.5-7.6,11.9-7.6v-0.4c0-1.3-0.6-3.5-4-3.5c-2,0-4,0.7-5.5,1.5l-1-3.3c1.5-0.9,4-1.8,7.2-1.8c6.5,0,8.3,4.1,8.3,8.6V90.7z
	 M366.6,85.7c-3.6,0-7.1,0.7-7.1,3.8c0,2,1.3,2.9,2.9,2.9c2.1,0,3.5-1.3,4-2.7c0.1-0.4,0.1-0.8,0.1-1.1V85.7z"/>
</svg>
