<?xml version="1.0" encoding="utf-8"?>
<!-- Generator: Adobe Illustrator 18.1.0, SVG Export Plug-In . SVG Version: 6.00 Build 0)  -->
<svg version="1.1" id="Layer_1" xmlns="http://www.w3.org/2000/svg" xmlns:xlink="http://www.w3.org/1999/xlink" x="0px" y="0px"
	 viewBox="0 0 380 137.8" enable-background="new 0 0 380 137.8" xml:space="preserve">
<g>
	<path fill="#FFFFFF" d="M121.4,32.8h-5.3v32h5.5c2.4,0,4.3-1.1,5.5-3.5c1.4-2.6,2.1-6.9,2.1-12.8c0-6-0.8-10.3-2.3-12.7
		C125.7,33.8,123.9,32.8,121.4,32.8z"/>
	<path fill="#FFFFFF" d="M263.5,26C259.4,3.8,198.7-3.6,128,9.4S3.2,50.8,7.2,73s64.7,29.6,135.5,16.7
		C213.4,76.6,267.5,48.1,263.5,26z M34.1,72.6L32.5,82l-1.6-9.4c-1.7-0.6-2.9-1.9-3.5-3.5l-10.5-1.6l10.5-1.6
		c0.6-1.6,1.8-2.8,3.5-3.3l1.5-7.7l1.5,7.7c1.6,0.5,2.9,1.7,3.5,3.3l10.5,1.6l-10.5,1.6C37.1,70.7,35.8,72,34.1,72.6z M95.5,61.5
		c0,5.1-1.7,8.8-5,11.2c-3,2.2-7.5,3.2-13.5,3.2c-5.8,0-10-1.7-12.3-5c-1.9-2.6-2.7-6.6-2.7-11.9h14.2c0,6.9,2.1,6.6,2.1,6.6
		s2.8,0.8,2.8-5.3V22.7h14.3L95.5,61.5L95.5,61.5z M139,67.1c-3.6,4.8-9.4,7.2-17.6,8.2h-11.9c-7.4,0-7.4-8.9-7.4-8.9V22.8h18.3
		c8,0,13.7,2.4,17.3,6.9c3.3,4.1,5.9,10.3,5.9,18.4C143.7,56.6,142.1,62.9,139,67.1z M185.8,72c-3.7,3.1-8.5,4.7-14.3,4.7
		c-7,0-12.6-2.1-16.8-6.1c-4.8-4.7-7.2-11.6-7.2-20.7c0-9.2,2.5-16.2,7.7-21c4.3-4,9.8-6,16.4-6c6.4,0,11.5,1.5,15.1,4.6
		c3.4,2.7,5.3,6.4,5,11.3H178c0,0-0.3-5.6-6.4-5.6c-3.1,0-5.4,1-7.1,3c-2.2,2.6-3.2,7.1-3.2,13.4c0,5.2,0.8,9,2.3,11.7
		c1.6,2.8,4.1,4.2,7.5,4.2c2.3,0,4.1-0.7,5.5-1.9c2.4-2.3,2.5-6.3,2.5-6.3h13.4C191.4,64.9,190.6,68,185.8,72z M220.9,47.9l-1.4,8.5
		l-1.4-8.5c-1.5-0.5-2.6-1.6-3.1-3.1l-9.4-1.5l9.5-1.5c0.5-1.4,1.6-2.5,3.1-2.9l1.4-6.9l1.4,6.9c1.4,0.5,2.6,1.5,3.1,2.9l9.5,1.5
		l-9.4,1.4C223.5,46.2,222.4,47.4,220.9,47.9z M236.3,30.2l-1.4,8.5l-1.4-8.5c-1.5-0.5-2.6-1.6-3.1-3.1l-9.4-1.5l9.5-1.5
		c0.5-1.4,1.6-2.5,3.1-2.9l1.4-6.9l1.4,6.9c1.4,0.5,2.6,1.5,3.1,2.9l9.5,1.5l-9.4,1.5C238.9,28.5,237.8,29.7,236.3,30.2z"/>
</g>
<g>
	<path fill="#FFFFFF" d="M16.4,101.7h5.1v18.1c0,7.7-3.8,10.3-9.2,10.3c-1.4,0-3.2-0.3-4.3-0.7l0.7-4c0.8,0.3,2,0.5,3.1,0.5
		c2.9,0,4.7-1.3,4.7-6.1L16.4,101.7L16.4,101.7z"/>
	<path fill="#FFFFFF" d="M32.2,103.8c0,1.5-1.1,2.7-2.9,2.7c-1.7,0-2.8-1.2-2.8-2.7c0-1.6,1.1-2.7,2.8-2.7
		C31.1,101,32.2,102.2,32.2,103.8z M26.9,129.6v-20.1H32v20.1H26.9z"/>
	<path fill="#FFFFFF" d="M37.4,115.4c0-2.4-0.1-4.2-0.2-6h4.4l0.3,3H42c0.9-1.6,3.1-3.5,6.5-3.5c3.5,0,7.1,2.3,7.1,8.7v11.9h-5.1
		v-11.4c0-2.9-1-5.1-3.9-5.1c-2.1,0-3.4,1.4-4,3c-0.2,0.4-0.3,1-0.3,1.6v11.9h-5.1L37.4,115.4L37.4,115.4z"/>
	<path fill="#FFFFFF" d="M61.3,102c2.3-0.4,5.1-0.6,8.1-0.6c5.2,0,8.7,1,11.3,3.2c2.7,2.2,4.4,5.6,4.4,10.3c0,5-1.7,8.7-4.3,11.1
		c-2.7,2.5-7.1,3.8-12.6,3.8c-2.9,0-5.2-0.2-6.9-0.4V102z M66.4,125.8c0.7,0.1,1.8,0.1,2.8,0.1c6.6,0,10.5-3.7,10.5-10.7
		c0-6.1-3.5-9.7-9.9-9.7c-1.6,0-2.7,0.1-3.5,0.3V125.8z"/>
	<path fill="#FFFFFF" d="M105,124.7c0,1.8,0.1,3.6,0.4,4.8h-4.6l-0.4-2.3h-0.1c-1.2,1.6-3.3,2.7-5.9,2.7c-4,0-6.3-2.9-6.3-6
		c0-5.1,4.5-7.6,11.9-7.6V116c0-1.3-0.6-3.5-4-3.5c-2,0-4,0.7-5.5,1.5l-1-3.3c1.5-0.9,4.1-1.8,7.2-1.8c6.5,0,8.3,4.1,8.3,8.6
		L105,124.7L105,124.7z M100,119.7c-3.6,0-7.1,0.7-7.1,3.8c0,2,1.3,2.9,2.9,2.9c2.1,0,3.5-1.3,4-2.7c0.1-0.4,0.1-0.8,0.1-1.1
		L100,119.7L100,119.7z"/>
	<path fill="#FFFFFF" d="M115.9,104.3v5.2h4.8v3.8h-4.8v8.8c0,2.4,0.7,3.8,2.6,3.8c0.9,0,1.4,0,2-0.2l0.1,3.9
		c-0.8,0.3-2.1,0.6-3.7,0.6c-1.9,0-3.4-0.7-4.4-1.7c-1.1-1.1-1.6-3-1.6-5.6v-9.5h-2.8v-3.8h2.8v-3.8L115.9,104.3z"/>
	<path fill="#FFFFFF" d="M140.1,124.7c0,1.8,0.1,3.6,0.4,4.8h-4.6l-0.4-2.3h-0.1c-1.2,1.6-3.3,2.7-5.9,2.7c-4,0-6.3-2.9-6.3-6
		c0-5.1,4.5-7.6,11.9-7.6V116c0-1.3-0.6-3.5-4-3.5c-2,0-4,0.7-5.5,1.5l-1-3.3c1.5-0.9,4-1.8,7.2-1.8c6.5,0,8.3,4.1,8.3,8.6V124.7z
		 M135.2,119.7c-3.6,0-7.1,0.7-7.1,3.8c0,2,1.3,2.9,2.9,2.9c2.1,0,3.5-1.3,4-2.7c0.1-0.4,0.1-0.8,0.1-1.1V119.7z"/>
	<path fill="#FFFFFF" d="M174.3,128.8c-1.2,0.6-3.9,1.2-7.2,1.2c-8.8,0-14.2-5.6-14.2-14c0-9.2,6.4-14.7,15-14.7
		c3.4,0,5.7,0.7,6.8,1.2l-1,4c-1.3-0.6-3.2-1-5.5-1c-5.6,0-9.8,3.6-9.8,10.3c0,6.1,3.6,10.1,9.7,10.1c2.1,0,4.1-0.4,5.6-1
		L174.3,128.8z"/>
	<path fill="#FFFFFF" d="M196.9,119.4c0,7.4-5.2,10.7-10.3,10.7c-5.6,0-10.1-3.9-10.1-10.3c0-6.6,4.3-10.6,10.4-10.6
		C192.8,109,196.9,113.2,196.9,119.4z M181.7,119.5c0,3.9,2,6.8,5,6.8c2.9,0,4.9-2.8,4.9-6.9c0-3.1-1.4-6.8-4.9-6.8
		C183.1,112.7,181.7,116.2,181.7,119.5z"/>
	<path fill="#FFFFFF" d="M220.2,119.4c0,7.4-5.2,10.7-10.3,10.7c-5.6,0-10.1-3.9-10.1-10.3c0-6.6,4.3-10.6,10.4-10.6
		C216.1,109,220.2,113.2,220.2,119.4z M205,119.5c0,3.9,2,6.8,5,6.8c2.9,0,4.9-2.8,4.9-6.9c0-3.1-1.4-6.8-4.9-6.8
		C206.5,112.7,205,116.2,205,119.5z"/>
	<path fill="#FFFFFF" d="M224.3,116.2c0-2.6-0.1-4.8-0.2-6.7h4.4l0.3,3.1h0.1c1.5-2.3,3.9-3.6,6.9-3.6c4.6,0,8.5,4,8.5,10.3
		c0,7.2-4.6,10.8-9.2,10.8c-2.5,0-4.6-1-5.6-2.7h-0.1v10.4h-5.1L224.3,116.2L224.3,116.2z M229.4,121.1c0,0.5,0,0.9,0.1,1.4
		c0.6,2.1,2.4,3.6,4.5,3.6c3.2,0,5.1-2.7,5.1-6.7c0-3.6-1.7-6.5-5-6.5c-2.1,0-4,1.5-4.6,3.8c-0.1,0.4-0.2,0.8-0.2,1.3L229.4,121.1
		L229.4,121.1z"/>
	<path fill="#FFFFFF" d="M252.1,121c0.1,3.7,2.9,5.2,6.2,5.2c2.4,0,4-0.4,5.6-0.9l0.8,3.5c-1.7,0.8-4.1,1.3-7.1,1.3
		c-6.5,0-10.3-4-10.3-10.2c0-5.6,3.4-10.8,9.9-10.8c6.5,0,8.7,5.4,8.7,9.8c0,0.9-0.1,1.7-0.2,2.2H252.1z M260.9,117.4
		c0-1.9-0.8-4.9-4.1-4.9c-3.1,0-4.4,2.8-4.7,4.9H260.9z"/>
	<path fill="#FFFFFF" d="M269.9,116c0-2.7,0-4.7-0.2-6.5h4.4l0.2,3.8h0.1c1-2.8,3.4-4.2,5.6-4.2c0.5,0,0.8,0,1.2,0.1v4.8
		c-0.5-0.1-0.9-0.1-1.5-0.1c-2.4,0-4.1,1.5-4.5,3.9c-0.1,0.5-0.1,1-0.1,1.5v10.4H270L269.9,116L269.9,116z"/>
	<path fill="#FFFFFF" d="M299.8,124.7c0,1.8,0.1,3.6,0.4,4.8h-4.6l-0.4-2.3h-0.1c-1.2,1.6-3.3,2.7-5.9,2.7c-4,0-6.3-2.9-6.3-6
		c0-5.1,4.5-7.6,11.9-7.6V116c0-1.3-0.6-3.5-4.1-3.5c-2,0-4,0.7-5.5,1.5l-1-3.3c1.5-0.9,4-1.8,7.2-1.8c6.5,0,8.3,4.1,8.3,8.6
		L299.8,124.7L299.8,124.7z M294.9,119.7c-3.6,0-7.1,0.7-7.1,3.8c0,2,1.3,2.9,2.9,2.9c2.1,0,3.5-1.3,4-2.7c0.1-0.4,0.1-0.8,0.1-1.1
		V119.7z"/>
	<path fill="#FFFFFF" d="M310.8,104.3v5.2h4.8v3.8h-4.8v8.8c0,2.4,0.7,3.8,2.6,3.8c0.9,0,1.4,0,2-0.2l0.1,3.9
		c-0.8,0.3-2.1,0.6-3.7,0.6c-1.9,0-3.4-0.7-4.4-1.7c-1.1-1.1-1.6-3-1.6-5.6v-9.5H303v-3.8h2.8v-3.8L310.8,104.3z"/>
	<path fill="#FFFFFF" d="M324.9,103.8c0,1.5-1.1,2.7-2.9,2.7c-1.7,0-2.8-1.2-2.8-2.7c0-1.6,1.1-2.7,2.8-2.7
		C323.8,101,324.8,102.2,324.9,103.8z M319.4,129.6v-20.1h5.1v20.1H319.4z"/>
	<path fill="#FFFFFF" d="M349.2,119.4c0,7.4-5.2,10.7-10.3,10.7c-5.6,0-10.1-3.9-10.1-10.3c0-6.6,4.3-10.6,10.4-10.6
		C345.1,109,349.2,113.2,349.2,119.4z M334,119.5c0,3.9,2,6.8,5,6.8c2.9,0,4.9-2.8,4.9-6.9c0-3.1-1.4-6.8-4.9-6.8
		C335.4,112.7,334,116.2,334,119.5z"/>
	<path fill="#FFFFFF" d="M353.3,115.4c0-2.4-0.1-4.2-0.2-6h4.4l0.3,3h0.1c0.9-1.6,3.1-3.5,6.5-3.5c3.5,0,7.1,2.3,7.1,8.7v11.9h-5.1
		v-11.4c0-2.9-1-5.1-3.9-5.1c-2.1,0-3.4,1.4-4,3c-0.2,0.4-0.3,1-0.3,1.6v11.9h-5.1V115.4z"/>
</g>
</svg>
