<?xml version="1.0" encoding="utf-8"?>
<!-- Generator: Adobe Illustrator 18.1.0, SVG Export Plug-In . SVG Version: 6.00 Build 0)  -->
<svg version="1.1" id="Layer_1" xmlns="http://www.w3.org/2000/svg" xmlns:xlink="http://www.w3.org/1999/xlink" x="0px" y="0px"
	 viewBox="7 3 256.7 93" enable-background="new 7 3 256.7 93" xml:space="preserve">
<g>
	<path fill="#FFFFFF" d="M121.4,32.8h-5.3v32h5.5c2.4,0,4.3-1.1,5.5-3.5c1.4-2.6,2.1-6.9,2.1-12.8c0-6-0.8-10.3-2.3-12.7
		C125.7,33.8,123.9,32.8,121.4,32.8z"/>
	<path fill="#FFFFFF" d="M263.5,26C259.4,3.8,198.7-3.6,128,9.4S3.2,50.8,7.2,73s64.7,29.6,135.5,16.7
		C213.4,76.6,267.5,48.1,263.5,26z M34.1,72.6L32.5,82l-1.6-9.4c-1.7-0.6-2.9-1.9-3.5-3.5l-10.5-1.6l10.5-1.6
		c0.6-1.6,1.8-2.8,3.5-3.3l1.5-7.7l1.5,7.7c1.6,0.5,2.9,1.7,3.5,3.3l10.5,1.6l-10.5,1.6C37.1,70.7,35.8,72,34.1,72.6z M95.5,61.5
		c0,5.1-1.7,8.8-5,11.2c-3,2.2-7.5,3.2-13.5,3.2c-5.8,0-10-1.7-12.3-5c-1.9-2.6-2.7-6.6-2.7-11.9h14.2c0,6.9,2.1,6.6,2.1,6.6
		s2.8,0.8,2.8-5.3V22.7h14.3L95.5,61.5L95.5,61.5z M139,67.1c-3.6,4.8-9.4,7.2-17.6,8.2h-11.9c-7.4,0-7.4-8.9-7.4-8.9V22.8h18.3
		c8,0,13.7,2.4,17.3,6.9c3.3,4.1,5.9,10.3,5.9,18.4C143.7,56.6,142.1,62.9,139,67.1z M185.8,72c-3.7,3.1-8.5,4.7-14.3,4.7
		c-7,0-12.6-2.1-16.8-6.1c-4.8-4.7-7.2-11.6-7.2-20.7c0-9.2,2.5-16.2,7.7-21c4.3-4,9.8-6,16.4-6c6.4,0,11.5,1.5,15.1,4.6
		c3.4,2.7,5.3,6.4,5,11.3H178c0,0-0.3-5.6-6.4-5.6c-3.1,0-5.4,1-7.1,3c-2.2,2.6-3.2,7.1-3.2,13.4c0,5.2,0.8,9,2.3,11.7
		c1.6,2.8,4.1,4.2,7.5,4.2c2.3,0,4.1-0.7,5.5-1.9c2.4-2.3,2.5-6.3,2.5-6.3h13.4C191.4,64.9,190.6,68,185.8,72z M220.9,47.9l-1.4,8.5
		l-1.4-8.5c-1.5-0.5-2.6-1.6-3.1-3.1l-9.4-1.5l9.5-1.5c0.5-1.4,1.6-2.5,3.1-2.9l1.4-6.9l1.4,6.9c1.4,0.5,2.6,1.5,3.1,2.9l9.5,1.5
		l-9.4,1.4C223.5,46.2,222.4,47.4,220.9,47.9z M236.3,30.2l-1.4,8.5l-1.4-8.5c-1.5-0.5-2.6-1.6-3.1-3.1l-9.4-1.5l9.5-1.5
		c0.5-1.4,1.6-2.5,3.1-2.9l1.4-6.9l1.4,6.9c1.4,0.5,2.6,1.5,3.1,2.9l9.5,1.5l-9.4,1.5C238.9,28.5,237.8,29.7,236.3,30.2z"/>
</g>
</svg>
